<svg xmlns="http://www.w3.org/2000/svg" width="1200" height="480" viewBox="0 35 1200 480">
  <defs><style>
    .label{font:600 20px system-ui,sans-serif;fill:#101828}.small{font:18px system-ui,sans-serif;fill:#475467}
    .inverse{fill:#fff}.axis{stroke:#98a2b3;stroke-width:3}.event{font:700 21px system-ui,sans-serif;fill:#fff}
  </style></defs>
  <rect x="90" y="105" width="350" height="300" fill="#f2f4f7"/>
  <rect x="440" y="105" width="720" height="300" fill="#292c33"/>
  <text x="260" y="140" text-anchor="middle" class="small">Before selected window</text>
  <text x="800" y="140" text-anchor="middle" class="small inverse">Selected window</text>
  <line x1="90" y1="350" x2="1160" y2="350" class="axis"/>
  <rect x="210" y="305" width="500" height="46" rx="10" fill="#73bf69" opacity=".22" stroke="#73bf69" stroke-width="3" stroke-dasharray="12 9"/>
  <circle cx="210" cy="328" r="11" fill="#73bf69" opacity=".45"/>
  <text x="210" y="215" text-anchor="middle" class="label">ACTIVE log 09:00</text>
  <line x1="440" y1="105" x2="440" y2="405" stroke="#5794f2" stroke-width="4"/>
  <text x="710" y="215" text-anchor="middle" class="event">REVOKE 10:20</text>
  <text x="880" y="255" text-anchor="middle" class="event">UPDATE 10:24</text>
  <text x="1070" y="215" text-anchor="middle" class="event">RELEASE 10:27</text>
  <rect x="710" y="305" width="170" height="46" fill="#ff9830"/>
  <rect x="880" y="305" width="190" height="46" fill="#8e8e8e"/>
  <line x1="710" y1="265" x2="710" y2="365" stroke="#ff9830" stroke-width="4"/>
  <line x1="880" y1="275" x2="880" y2="365" stroke="#8e8e8e" stroke-width="4"/>
  <line x1="1070" y1="265" x2="1070" y2="365" stroke="#667085" stroke-width="4"/>
  <text x="795" y="335" text-anchor="middle" class="small">REVOKED</text>
  <text x="975" y="335" text-anchor="middle" class="small inverse">REVOKED_UNLOADED</text>
  <text x="440" y="440" text-anchor="middle" class="small">10:00 · start</text>
  <text x="1160" y="440" text-anchor="end" class="small">10:30 · end</text>
</svg>
